<?xml version="1.0" encoding="utf-8"?>
<!-- Generator: Adobe Illustrator 24.1.2, SVG Export Plug-In . SVG Version: 6.00 Build 0)  -->
<svg version="1.1" id="Слой_1" xmlns="http://www.w3.org/2000/svg" xmlns:xlink="http://www.w3.org/1999/xlink" x="0px" y="0px"
	 viewBox="0 0 20 16" style="enable-background:new 0 0 20 16;" xml:space="preserve">
<style type="text/css">
	.st0{fill:#C7D0D8;}
</style>
<path class="st0" d="M19.9,7.9C19.7,7.7,15.4,3,10,3C4.6,3,0.3,7.7,0.1,7.9C0,8.1,0,8.4,0.1,8.7c0.2,0.2,4.5,4.9,9.9,4.9
	c5.4,0,9.7-4.7,9.9-4.9C20,8.4,20,8.1,19.9,7.9z M10,12.4c-2.3,0-4.1-1.8-4.1-4.1C5.9,6,7.7,4.2,10,4.2c2.3,0,4.1,1.8,4.1,4.1
	C14.1,10.5,12.3,12.4,10,12.4z"/>
<path class="st0" d="M10.6,7.1c0-0.6,0.3-1.1,0.7-1.4c-0.4-0.2-0.8-0.3-1.3-0.3c-1.6,0-2.9,1.3-2.9,2.9s1.3,2.9,2.9,2.9
	c1.4,0,2.6-1.1,2.9-2.4C11.7,9.1,10.6,8.3,10.6,7.1z"/>
</svg>
