<svg width="20" height="16" viewBox="0 0 20 16" fill="none" xmlns="http://www.w3.org/2000/svg">
<path d="M19.8507 7.88261C19.6722 7.68347 15.3782 3 10 3C4.62181 3 0.32791 7.68347 0.149355 7.88261C-0.0497851 8.10519 -0.0497851 8.44168 0.149355 8.66426C0.32791 8.8634 4.62189 13.5469 10 13.5469C15.3781 13.5469 19.6721 8.8634 19.8507 8.66426C20.0498 8.44168 20.0498 8.10519 19.8507 7.88261ZM10 12.375C7.73865 12.375 5.89845 10.5348 5.89845 8.27344C5.89845 6.01207 7.73865 4.17187 10 4.17187C12.2614 4.17187 14.1016 6.01207 14.1016 8.27344C14.1016 10.5348 12.2614 12.375 10 12.375Z" fill="#C7D0D8"/>
<path d="M10.5859 7.10156C10.5859 6.51211 10.8786 5.99355 11.3237 5.67461C10.9243 5.47012 10.4787 5.34375 10 5.34375C8.38465 5.34375 7.07031 6.65809 7.07031 8.27344C7.07031 9.88879 8.38465 11.2031 10 11.2031C11.4462 11.2031 12.6433 10.1471 12.8798 8.76726C11.6998 9.14715 10.5859 8.25476 10.5859 7.10156Z" fill="#C7D0D8"/>
<rect x="3" y="15" width="20" height="1" transform="rotate(-45 3 15)" fill="#C7D0D8"/>
</svg>
