<svg width="18" height="18" viewBox="0 0 18 18" fill="none" xmlns="http://www.w3.org/2000/svg">
<path fill-rule="evenodd" clip-rule="evenodd" d="M2.39836 2.0647C1.97769 2.4432 1.67256 2.9329 1.51818 3.47733C1.36379 4.02175 1.36643 4.59873 1.52579 5.14172C2.24026 7.57331 3.5251 9.71671 5.39233 11.5839C7.24933 13.4431 9.44713 14.9271 11.8656 15.9548C12.4341 16.1983 13.0639 16.2602 13.6689 16.1321C14.274 16.004 14.8247 15.6922 15.2458 15.2393L16.1364 14.2817C16.3128 14.092 16.4088 13.8412 16.4041 13.5822C16.3995 13.3232 16.2945 13.076 16.1114 12.8928L13.8769 10.6583C13.8682 10.6496 13.8577 10.643 13.8461 10.639C13.8345 10.6349 13.8221 10.6337 13.8099 10.6352C13.7977 10.6368 13.786 10.6411 13.7758 10.6479C13.7655 10.6547 13.757 10.6637 13.7508 10.6743C13.5894 10.9473 13.3688 11.1806 13.1054 11.3572C12.8419 11.5338 12.5423 11.6491 12.2284 11.6947C11.9146 11.7403 11.5945 11.715 11.2917 11.6207C10.9889 11.5263 10.7111 11.3654 10.4787 11.1497L6.92333 7.84949C6.43897 7.39987 6.14646 6.78091 6.10658 6.12123C6.0667 5.46155 6.28252 4.81187 6.70919 4.30717C6.81628 4.18093 6.87296 4.01957 6.86835 3.85408C6.86373 3.6886 6.79814 3.53066 6.68417 3.41058L4.69187 1.3122C4.51232 1.12281 4.26588 1.01106 4.0051 1.00078C3.74433 0.990496 3.48986 1.0825 3.29595 1.25717L2.39736 2.0657L2.39836 2.0647Z" stroke="#2C373E" stroke-width="1.7"/>
</svg>
