<svg width="15" height="16" viewBox="0 0 15 16" fill="none" xmlns="http://www.w3.org/2000/svg">
<path d="M5.07739 1.88908V5.34715H4.57812V1.88908C4.57812 1.14055 5.199 0.5 5.9672 0.5H8.96574C9.71427 0.5 10.3548 1.12087 10.3548 1.88908V5.34715H9.85555V1.88908C9.85555 1.40304 9.45178 0.999269 8.96574 0.999269H5.9672C5.48117 0.999269 5.07739 1.40304 5.07739 1.88908Z" fill="#798087" stroke="#798087"/>
<path d="M0.5 5.3877H14.4927V5.88696H0.5V5.3877Z" fill="#798087" stroke="#798087"/>
<path d="M1.99927 14.0234H12.9934V14.5227H1.99927V14.0234Z" fill="#798087" stroke="#798087"/>
<path d="M12.5826 14.3517L13.929 6.71388L14.4207 6.80055L13.0743 14.4384L12.5826 14.3517Z" fill="#798087" stroke="#798087"/>
<path d="M0.581691 6.80838L1.07337 6.72166L2.42054 14.3595L1.92886 14.4462L0.581691 6.80838Z" fill="#798087" stroke="#798087"/>
<path d="M7.24658 8.23633H7.74585V11.7341H7.24658V8.23633Z" fill="#798087" stroke="#798087"/>
<path d="M10.2451 8.23633H10.7444V11.7341H10.2451V8.23633Z" fill="#798087" stroke="#798087"/>
<path d="M4.24805 8.23633H4.74732V11.7341H4.24805V8.23633Z" fill="#798087" stroke="#798087"/>
</svg>
