<svg width="15" height="16" viewBox="0 0 15 16" fill="none" xmlns="http://www.w3.org/2000/svg">
<path d="M9.35555 5.87714V1.88908C9.35555 1.67918 9.17564 1.49927 8.96574 1.49927H5.9672C5.75731 1.49927 5.57739 1.67918 5.57739 1.88908V5.84715H4.07812V1.88908C4.07812 0.869576 4.91772 0 5.9672 0H8.96574C9.98525 0 10.8548 0.839591 10.8548 1.88908V5.84715H9.35555V5.87714Z" fill="#2C373E"/>
<path d="M14.9927 4.8877H0V6.38696H14.9927V4.8877Z" fill="#2C373E"/>
<path d="M13.4934 13.5234H1.49927V15.0227H13.4934V13.5234Z" fill="#2C373E"/>
<path d="M13.5234 6.13468L12.0034 14.7573L13.4799 15.0176L14.9999 6.39495L13.5234 6.13468Z" fill="#2C373E"/>
<path d="M1.47892 6.14241L0.00244141 6.40283L1.52331 15.0255L2.99979 14.7651L1.47892 6.14241Z" fill="#2C373E"/>
<path d="M8.24585 7.73633H6.74658V12.2341H8.24585V7.73633Z" fill="#2C373E"/>
<path d="M11.2444 7.73633H9.74512V12.2341H11.2444V7.73633Z" fill="#2C373E"/>
<path d="M5.24732 7.73633H3.74805V12.2341H5.24732V7.73633Z" fill="#2C373E"/>
</svg>
