<svg width="150" height="30" viewBox="0 0 150 30" fill="none" xmlns="http://www.w3.org/2000/svg">
<path d="M15 0C6.75 0 0 6.75 0 15C0 23.25 6.75 30 15 30C23.25 30 30 23.25 30 15C30 6.75001 23.3333 0 15 0Z" fill="white"/>
<path d="M15.0003 8.91602C7.33367 8.91602 7.16699 9.58267 7.16699 14.9993C7.16699 20.416 7.33362 21.0827 15.0003 21.0827C22.7503 21.0827 22.8336 20.416 22.8336 14.9993C22.8336 9.58267 22.667 8.91602 15.0003 8.91602ZM18.1435 15.2259L13.6376 17.3716C13.2084 17.5861 12.8866 17.3716 12.8866 16.9424V12.9729C12.8866 12.5438 13.2084 12.3292 13.6376 12.5438L18.1435 14.6895C18.4653 14.7967 18.4653 15.1186 18.1435 15.2259Z" fill="#2C373E"/>
<path d="M55 0C46.75 0 40 6.75 40 15C40 23.25 46.75 30 55 30C63.25 30 70 23.25 70 15C70 6.75001 63.3333 0 55 0Z" fill="white"/>
<path d="M58.5837 10.3327H56.3337C56.0837 10.3327 55.7503 10.666 55.7503 11.166V12.8327H58.5837L58.167 15.166H55.7503V22.166H53.0837V15.166H50.667V12.8327H53.0837V11.4994C53.0837 9.49936 54.417 7.91602 56.3336 7.91602H58.5837V10.3327H58.5837Z" fill="#2C373E"/>
<path d="M95 0C86.75 0 80 6.75 80 15C80 23.25 86.75 30 95 30C103.25 30 110 23.25 110 15C110 6.75001 103.333 0 95 0Z" fill="white"/>
<path d="M100.833 16.9167C100.833 16.9167 102.167 18.25 102.5 18.8333C102.667 19.0833 102.667 19.25 102.583 19.3333C102.5 19.5833 102.083 19.6667 102 19.6667C102 19.6667 99.7499 19.6667 99.6666 19.6667C99.4999 19.6667 99.1666 19.5833 98.7499 19.3333C98.4166 19.0833 98.0833 18.75 97.8333 18.4167C97.4166 17.9167 96.9999 17.4167 96.5833 17.4167C96.4999 17.4167 96.4999 17.4167 96.4166 17.4167C96.0833 17.5 95.7499 17.9167 95.7499 19.0833C95.7499 19.4167 95.4999 19.6667 95.2499 19.6667C95.2499 19.6667 94.2499 19.6667 94.1666 19.6667C93.8333 19.6667 91.9166 19.5 90.2499 17.75C88.1666 15.5833 86.3332 11.1667 86.3332 11.1667C86.2499 10.9167 86.4999 10.75 86.7499 10.75H89.0832C89.4166 10.75 89.4999 10.9167 89.5832 11.0833C89.6666 11.25 89.9999 12.0833 90.4999 13C91.3332 14.4167 91.8332 15 92.2499 15C92.3333 15 92.4166 15 92.4999 14.9167C92.9999 14.5833 92.9166 12.75 92.9166 12.3333C92.9166 12.25 92.9166 11.5 92.6666 11.0833C92.4999 10.8333 92.1666 10.75 91.9166 10.6667C91.9999 10.5833 92.0833 10.5 92.2499 10.4167C92.5832 10.25 93.2499 10.25 93.9166 10.25H94.2499C94.9166 10.25 95.1666 10.3333 95.4166 10.3333C95.9166 10.4167 95.9166 10.75 95.9166 11.9167C95.9166 12.25 95.9166 12.5833 95.9166 13C95.9166 13.0833 95.9166 13.1667 95.9166 13.3333C95.9166 13.9167 95.9166 14.5833 96.2499 14.8333C96.3332 14.8333 96.3332 14.9167 96.4166 14.9167C96.5833 14.9167 96.9999 14.9167 98.1666 12.9167C98.6666 12 99.0833 11 99.0833 10.9167C99.0833 10.9167 99.1666 10.75 99.2499 10.6667C99.3333 10.6667 99.4166 10.5833 99.4166 10.5833H102.167C102.5 10.5833 102.667 10.6667 102.75 10.75C102.833 10.9167 102.75 11.5 101.5 13.25C101.25 13.5 101.083 13.75 100.917 14C99.5833 15.6667 99.5833 15.75 100.833 16.9167Z" fill="#2C373E"/>
<path d="M135 0C132.033 0 129.133 0.879734 126.666 2.52796C124.2 4.17618 122.277 6.51886 121.142 9.25975C120.006 12.0006 119.709 15.0166 120.288 17.9263C120.867 20.8361 122.296 23.5088 124.393 25.6066C126.491 27.7044 129.164 29.133 132.074 29.7118C134.983 30.2905 137.999 29.9935 140.74 28.8582C143.481 27.7229 145.824 25.8003 147.472 23.3335C149.12 20.8668 150 17.9667 150 15C150 11.0218 148.42 7.20644 145.607 4.3934C142.794 1.58035 138.978 0 135 0V0Z" fill="white"/>
<path d="M138.286 23.1817H131.714C130.311 23.1817 128.965 22.6243 127.973 21.6321C126.98 20.6398 126.423 19.2941 126.423 17.8908V12.109C126.423 10.7058 126.98 9.36002 127.973 8.36779C128.965 7.37555 130.311 6.81812 131.714 6.81812H138.286C139.69 6.81812 141.035 7.37555 142.028 8.36779C143.02 9.36002 143.577 10.7058 143.577 12.109V17.8908C143.577 19.2941 143.02 20.6398 142.028 21.6321C141.035 22.6243 139.69 23.1817 138.286 23.1817ZM131.714 7.99084C130.629 7.99084 129.588 8.42185 128.821 9.18904C128.054 9.95624 127.623 10.9968 127.623 12.0817V17.8636C127.623 18.4008 127.729 18.9328 127.934 19.4291C128.14 19.9254 128.441 20.3764 128.821 20.7563C129.201 21.1362 129.652 21.4375 130.148 21.6431C130.645 21.8487 131.177 21.9545 131.714 21.9545H138.286C139.371 21.9545 140.412 21.5235 141.179 20.7563C141.946 19.9891 142.377 18.9485 142.377 17.8636V12.109C142.377 11.024 141.946 9.98351 141.179 9.21631C140.412 8.44912 139.371 8.01812 138.286 8.01812L131.714 7.99084Z" fill="#2C373E"/>
<path d="M135 19.7045C134.069 19.7045 133.16 19.4286 132.386 18.9116C131.613 18.3947 131.01 17.66 130.654 16.8003C130.297 15.9407 130.204 14.9947 130.386 14.0821C130.567 13.1696 131.015 12.3313 131.673 11.6733C132.331 11.0154 133.17 10.5673 134.082 10.3858C134.995 10.2043 135.941 10.2974 136.8 10.6535C137.66 11.0096 138.395 11.6126 138.912 12.3863C139.429 13.1599 139.705 14.0695 139.705 15C139.701 16.2466 139.204 17.4411 138.323 18.3226C137.441 19.2041 136.247 19.7009 135 19.7045ZM135 11.5227C134.299 11.5228 133.614 11.7314 133.032 12.1219C132.45 12.5124 131.998 13.0673 131.732 13.7158C131.466 14.3644 131.4 15.0773 131.541 15.7638C131.681 16.4504 132.023 17.0795 132.523 17.5712C133.022 18.0629 133.656 18.3949 134.345 18.525C135.034 18.655 135.745 18.5773 136.39 18.3016C137.034 18.0259 137.582 17.5647 137.963 16.9768C138.345 16.3888 138.543 15.7007 138.532 15C138.532 14.0633 138.16 13.1649 137.497 12.5026C136.835 11.8402 135.937 11.4681 135 11.4681V11.5227Z" fill="#2C373E"/>
<path d="M140.605 10.4319C140.607 10.6272 140.552 10.8189 140.445 10.9824C140.338 11.146 140.185 11.2739 140.005 11.3499C139.825 11.4259 139.626 11.4465 139.435 11.409C139.243 11.3716 139.067 11.2778 138.929 11.1397C138.791 11.0016 138.697 10.8254 138.659 10.6337C138.622 10.4419 138.642 10.2434 138.718 10.0635C138.794 9.88352 138.922 9.73033 139.086 9.62349C139.249 9.51665 139.441 9.46102 139.636 9.46372C139.893 9.46372 140.14 9.56572 140.321 9.74729C140.503 9.92886 140.605 10.1751 140.605 10.4319Z" fill="#2C373E"/>
</svg>
